<svg width="30" height="30" viewBox="0 0 30 30" fill="none" xmlns="http://www.w3.org/2000/svg">
<rect width="30" height="30" rx="15" fill="#A3A2A2" fill-opacity="0.79"/>
<path d="M18.2244 10.96C18.5883 10.9597 18.9487 11.0292 19.2844 11.1644C19.62 11.2995 19.9242 11.4977 20.179 11.7472C20.7041 12.2591 20.9984 12.9487 20.9984 13.6672C20.9984 14.3857 20.7041 15.0753 20.179 15.5872L15 20.6224L9.821 15.5872C9.29589 15.0753 9.00155 14.3857 9.00155 13.6672C9.00155 12.9487 9.29589 12.2591 9.821 11.7472C10.076 11.4979 10.3802 11.2998 10.7158 11.1646C11.0514 11.0294 11.4117 10.9598 11.7756 10.9598C12.1396 10.9598 12.4999 11.0294 12.8355 11.1646C13.1711 11.2998 13.4752 11.4979 13.7302 11.7472L15 12.9952L16.2648 11.7568C16.5188 11.5043 16.8233 11.3036 17.16 11.1667C17.4967 11.0298 17.8587 10.9595 18.2244 10.96ZM18.2244 10C17.7273 9.9996 17.2351 10.0945 16.7767 10.2791C16.3183 10.4638 15.9029 10.7344 15.5549 11.0752L15 11.6128L14.4451 11.0752C14.0966 10.735 13.6812 10.4648 13.2228 10.2804C12.7645 10.096 12.2726 10.001 11.7756 10.001C11.2787 10.001 10.7867 10.096 10.3284 10.2804C9.87009 10.4648 9.4546 10.735 9.10614 11.0752C8.39721 11.7681 8 12.7007 8 13.672C8 14.6433 8.39721 15.5759 9.10614 16.2688L15 22L20.8939 16.2688C21.6028 15.5759 22 14.6433 22 13.672C22 12.7007 21.6028 11.7681 20.8939 11.0752C20.5453 10.7351 20.1298 10.4648 19.6716 10.2802C19.2133 10.0957 18.7213 10.0004 18.2244 10Z" fill="white"/>
</svg>
