<svg width="24" height="24" viewBox="0 0 24 24" fill="none" xmlns="http://www.w3.org/2000/svg">
<rect x="0.25" y="0.25" width="23.5" height="23.5" rx="11.75" fill="white"/>
<rect x="0.25" y="0.25" width="23.5" height="23.5" rx="11.75" stroke="#8361D9" stroke-width="0.5"/>
<path d="M12 12.6667C13.5973 12.6667 15.05 13.1294 16.1187 13.7807C16.652 14.1074 17.108 14.4907 17.4373 14.9074C17.7613 15.318 18 15.8087 18 16.3334C18 16.8967 17.726 17.3407 17.3313 17.6574C16.958 17.9574 16.4653 18.156 15.942 18.2947C14.89 18.5727 13.486 18.6667 12 18.6667C10.514 18.6667 9.11 18.5734 8.058 18.2947C7.53467 18.156 7.042 17.9574 6.66867 17.6574C6.27333 17.34 6 16.8967 6 16.3334C6 15.8087 6.23867 15.318 6.56267 14.9074C6.892 14.4907 7.34733 14.1074 7.88133 13.7807C8.95 13.1294 10.4033 12.6667 12 12.6667Z" fill="#8361D9"/>
<path opacity="0.3" d="M12 5.33331C14.566 5.33331 16.17 8.11131 14.8867 10.3333C14.5941 10.84 14.1733 11.2608 13.6666 11.5534C13.1599 11.8459 12.5851 12 12 12C9.43399 12 7.82999 9.22198 9.11333 6.99998C9.40588 6.49326 9.82666 6.07248 10.3334 5.77992C10.8401 5.48736 11.4149 5.33333 12 5.33331Z" fill="#8361D9"/>
</svg>
