<svg width="30" height="30" viewBox="0 0 30 30" fill="none" xmlns="http://www.w3.org/2000/svg">
<rect x="0.5" y="0.5" width="29" height="29" rx="14.5" fill="#F6F6F6"/>
<rect x="0.5" y="0.5" width="29" height="29" rx="14.5" stroke="#DFDFDF"/>
<path d="M16.1939 18.2663L13.0999 16.549C12.696 16.9885 12.1715 17.2942 11.5946 17.4263C11.0177 17.5585 10.4151 17.511 9.86506 17.29C9.31506 17.069 8.84308 16.6847 8.51047 16.1871C8.17786 15.6895 8 15.1016 8 14.4998C8 13.898 8.17786 13.3101 8.51047 12.8125C8.84308 12.3149 9.31506 11.9307 9.86506 11.7097C10.4151 11.4887 11.0177 11.4412 11.5946 11.5733C12.1715 11.7055 12.696 12.0111 13.0999 12.4506L16.1947 10.7333C16.0192 10.0253 16.1035 9.27657 16.4317 8.62733C16.76 7.97809 17.3096 7.47297 17.9775 7.20666C18.6455 6.94035 19.386 6.93112 20.0602 7.18072C20.7343 7.43031 21.2959 7.92159 21.6397 8.56246C21.9834 9.20332 22.0856 9.94978 21.9273 10.6619C21.7689 11.374 21.3608 12.0029 20.7794 12.4307C20.1981 12.8584 19.4833 13.0557 18.7693 12.9855C18.0552 12.9154 17.3908 12.5825 16.9006 12.0494L13.8058 13.7668C13.9248 14.2477 13.9248 14.7512 13.8058 15.2321L16.9006 16.9495C17.391 16.4166 18.0556 16.0841 18.7697 16.0143C19.4838 15.9445 20.1984 16.1421 20.7795 16.5702C21.3607 16.9982 21.7685 17.6273 21.9266 18.3394C22.0846 19.0516 21.982 19.798 21.638 20.4387C21.294 21.0794 20.7322 21.5704 20.058 21.8197C19.3837 22.069 18.6433 22.0595 17.9754 21.7929C17.3076 21.5263 16.7582 21.021 16.4302 20.3716C16.1022 19.7223 16.0182 18.9735 16.1939 18.2656M10.9476 15.9993C11.3384 15.9993 11.7133 15.8413 11.9896 15.56C12.266 15.2787 12.4213 14.8972 12.4213 14.4995C12.4213 14.1017 12.266 13.7202 11.9896 13.4389C11.7133 13.1576 11.3384 12.9996 10.9476 12.9996C10.5567 12.9996 10.1819 13.1576 9.90549 13.4389C9.62912 13.7202 9.47385 14.1017 9.47385 14.4995C9.47385 14.8972 9.62912 15.2787 9.90549 15.56C10.1819 15.8413 10.5567 15.9993 10.9476 15.9993ZM19.0529 11.4997C19.4438 11.4997 19.8186 11.3417 20.095 11.0604C20.3714 10.7792 20.5266 10.3977 20.5266 9.99987C20.5266 9.60209 20.3714 9.22059 20.095 8.93931C19.8186 8.65803 19.4438 8.50001 19.0529 8.50001C18.6621 8.50001 18.2872 8.65803 18.0109 8.93931C17.7345 9.22059 17.5792 9.60209 17.5792 9.99987C17.5792 10.3977 17.7345 10.7792 18.0109 11.0604C18.2872 11.3417 18.6621 11.4997 19.0529 11.4997ZM19.0529 20.4989C19.4438 20.4989 19.8186 20.3409 20.095 20.0596C20.3714 19.7783 20.5266 19.3968 20.5266 18.999C20.5266 18.6012 20.3714 18.2197 20.095 17.9385C19.8186 17.6572 19.4438 17.4992 19.0529 17.4992C18.6621 17.4992 18.2872 17.6572 18.0109 17.9385C17.7345 18.2197 17.5792 18.6012 17.5792 18.999C17.5792 19.3968 17.7345 19.7783 18.0109 20.0596C18.2872 20.3409 18.6621 20.4989 19.0529 20.4989Z" fill="#2D2D2D"/>
</svg>
