<svg width="15" height="15" viewBox="0 0 15 15" fill="none" xmlns="http://www.w3.org/2000/svg">
<path d="M9.65716 3.68854L10.6202 5.51194C10.6918 5.64616 10.7946 5.76173 10.9202 5.84916C11.0458 5.9366 11.1906 5.99342 11.3427 6.01496L13.3768 6.28995C14.4645 6.43802 14.8862 7.76179 14.0818 8.49792L12.6889 9.76669C12.5703 9.8745 12.4813 10.0102 12.4301 10.1611C12.379 10.312 12.3673 10.4732 12.3962 10.6297L12.736 12.4904C12.9251 13.5269 11.8326 14.3349 10.8739 13.8611L8.92986 12.9092C8.79605 12.8445 8.64901 12.8109 8.5 12.8109C8.35099 12.8109 8.20395 12.8445 8.07014 12.9092L6.12612 13.8611C5.16696 14.3307 4.07495 13.5269 4.26395 12.4904L4.60381 10.6293C4.66381 10.312 4.55238 9.98626 4.31152 9.76626L2.91822 8.49792C2.11378 7.76602 2.5355 6.4376 3.62323 6.28953L5.65725 6.01454C5.80983 5.99434 5.95521 5.93805 6.08102 5.85047C6.20682 5.76289 6.30934 5.64661 6.37983 5.51152L7.34327 3.68854C7.83356 2.77049 9.17072 2.77049 9.65673 3.68854" fill="#FCD53F"/>
</svg>
